<svg width="200" height="200" viewBox="0 0 200 200" fill="none" xmlns="http://www.w3.org/2000/svg">
<circle cx="100" cy="100" r="100" fill="#9960F6"/>
<circle opacity="0.35" cx="100" cy="100" r="76.5182" fill="#5551FF"/>
<circle opacity="0.3" cx="100" cy="99.9999" r="50.8097" fill="#3530FF"/>
<path d="M81.4342 97.6377H84.3816C84.339 95.0454 82.2084 93.2556 78.9697 93.2556C75.7808 93.2556 73.4441 95.017 73.4584 97.659C73.4512 99.8039 74.964 101.033 77.4214 101.622L79.0052 102.02C80.589 102.403 81.4697 102.858 81.4768 103.838C81.4697 104.903 80.4612 105.628 78.8987 105.628C77.3007 105.628 76.1501 104.889 76.0507 103.433H73.0748C73.153 106.579 75.4044 108.206 78.9342 108.206C82.4853 108.206 84.5734 106.508 84.5805 103.845C84.5734 101.423 82.7481 100.138 80.2197 99.5695L78.9129 99.257C77.6487 98.9658 76.5905 98.4971 76.6118 97.4531C76.6118 96.5156 77.4427 95.8266 78.9484 95.8266C80.4186 95.8266 81.3206 96.4943 81.4342 97.6377Z" fill="#FFA72B"/>
<path d="M100.016 100.727C100.016 95.9687 97.061 93.2556 93.2044 93.2556C89.3266 93.2556 86.3934 95.9687 86.3934 100.727C86.3934 105.464 89.3266 108.199 93.2044 108.199C97.061 108.199 100.016 105.486 100.016 100.727ZM96.8976 100.727C96.8976 103.81 95.4346 105.479 93.2044 105.479C90.9672 105.479 89.5113 103.81 89.5113 100.727C89.5113 97.6448 90.9672 95.9758 93.2044 95.9758C95.4346 95.9758 96.8976 97.6448 96.8976 100.727Z" fill="#FFA72B"/>
<path d="M107.45 108C111.882 108 114.566 105.258 114.566 100.713C114.566 96.1818 111.882 93.4545 107.492 93.4545H102.294V108H107.45ZM105.369 105.365V96.0894H107.329C110.056 96.0894 111.498 97.4815 111.498 100.713C111.498 103.959 110.056 105.365 107.322 105.365H105.369Z" fill="#FFA72B"/>
<path d="M118.531 108L119.611 104.683H124.859L125.939 108H129.234L124.22 93.4545H120.257L115.236 108H118.531ZM120.392 102.283L122.182 96.7783H122.295L124.085 102.283H120.392Z" fill="#FFA72B"/>
</svg>
