<svg width="128" height="128" viewBox="0 0 128 128" fill="none" xmlns="http://www.w3.org/2000/svg">
<path d="M64 128C99.3462 128 128 99.3462 128 64C128 28.6538 99.3462 0 64 0C28.6538 0 0 28.6538 0 64C0 99.3462 28.6538 128 64 128Z" fill="#CEF564"/>
<path d="M74.6636 112.933C77.3497 112.392 78.8543 113.977 79.269 116.034C79.6838 118.092 78.9126 120.136 76.2214 120.682C73.5346 121.223 72.03 119.638 71.6153 117.585C71.2006 115.532 71.9769 113.474 74.6636 112.933Z" fill="#016450"/>
<path d="M56.7032 16.7982C54.0024 17.2619 52.5459 15.6291 52.1938 13.5615C51.8418 11.4939 52.6761 9.47455 55.3769 9.01074C58.0777 8.54699 59.5342 10.1798 59.8863 12.2475C60.2384 14.3151 59.404 16.3393 56.7032 16.7982Z" fill="#016450"/>
<path d="M52.3476 68.3649C52.2856 68.1515 52.1954 67.9473 52.0792 67.7579C51.9641 67.5396 51.9119 67.2936 51.9286 67.0474C51.9286 66.8733 52.0039 66.7509 51.8344 66.6427C51.7308 66.5917 51.6218 66.5523 51.5096 66.5251L49.7582 65.9792C49.9787 66.7713 50.4175 67.4855 51.0246 68.0402C51.4008 68.6517 51.8292 69.2295 52.3052 69.7671C52.2298 69.6013 52.1881 69.4221 52.1828 69.2401C52.1734 68.9578 52.39 68.6613 52.3476 68.3649Z" fill="#016450"/>
<path d="M49.6829 65.3959C50.3703 65.6076 51.0623 65.8147 51.745 66.0358C51.987 66.0892 52.2051 66.2196 52.3665 66.4075C52.5454 66.6616 52.4418 66.8781 52.4559 67.1839C52.4559 67.6545 52.8796 67.9744 52.8844 68.4403C52.8844 68.7226 52.7055 68.9673 52.7149 69.2449C52.7534 69.5006 52.8572 69.742 53.0162 69.946C53.622 70.774 54.4789 71.3845 55.4596 71.687C56.6372 72.0581 57.8643 72.2484 59.0989 72.2516C59.3458 72.2715 59.5936 72.2299 59.8204 72.1306C60.0472 72.0312 60.2458 71.8772 60.3984 71.6823C60.623 71.3791 60.7948 71.0403 60.9068 70.68C60.2914 70.3243 59.7662 69.8316 59.372 69.2402C58.8259 68.4873 58.3221 67.7109 57.7995 66.9439C57.5833 66.5415 57.3124 66.171 56.9945 65.8429C56.6389 65.6222 56.244 65.472 55.8316 65.4006C55.4292 65.3015 55.0201 65.2323 54.6075 65.1935C54.2638 65.1606 53.9154 65.1935 53.5764 65.1088C53.3148 65.0714 53.0755 64.9409 52.9025 64.7412C52.7295 64.5415 52.6344 64.286 52.6348 64.0219C52.6348 63.5043 52.9314 63.0291 52.9456 62.5162C52.9456 62.2056 52.7478 62.1303 52.5783 61.8998C52.3571 61.5986 52.5218 61.2881 52.5265 60.9587C52.4875 60.5395 52.4231 60.1231 52.3335 59.7117C52.2911 59.3635 52.277 59.0059 52.2676 58.653C52.2676 57.2414 52.4277 55.7216 51.6038 54.4887C51.4107 54.197 51.8863 53.9241 52.0746 54.2158C52.9738 55.5569 52.7808 57.2132 52.8137 58.7424C52.8168 59.1301 52.8483 59.5169 52.9079 59.9C52.9891 60.2481 53.0427 60.6021 53.068 60.9587C53.068 61.161 52.9409 61.4716 53.068 61.6315C53.1951 61.7915 53.2657 61.8057 53.341 61.9233C53.4537 62.1033 53.5079 62.3136 53.4964 62.5256C53.4964 63.0243 53.2186 63.4667 53.1904 63.9748C53.148 64.6948 54.019 64.6101 54.5322 64.6524C55.3383 64.7098 56.1315 64.8858 56.8862 65.1747C57.6583 65.4806 58.0302 66.2664 58.4728 66.9157C58.9153 67.5651 59.3861 68.285 59.8852 68.9485C60.2656 69.5427 60.8034 70.0199 61.4388 70.3271C61.4906 70.3571 61.5312 70.4033 61.5541 70.4586C61.5771 70.5138 61.5812 70.5751 61.566 70.633C61.2646 71.6493 60.662 72.7128 59.4709 72.8069C58.8076 72.8279 58.1439 72.7853 57.4888 72.6798C56.8757 72.6161 56.2693 72.4996 55.6762 72.3316C55.4738 72.2705 55.2713 72.1999 55.0736 72.1246C55.9615 72.6855 56.9089 73.1463 57.8984 73.4986C61.4059 74.7643 65.8079 74.1573 68.967 72.214C71.6675 70.5261 73.7664 68.0299 74.965 65.0806H74.9038L74.5319 65.0336C74.4171 65.026 74.3063 64.9886 74.2105 64.9251C74.1147 64.8615 74.0372 64.774 73.9857 64.6712C73.8 64.4285 73.669 64.1485 73.6015 63.8505C73.5341 63.5524 73.5319 63.2433 73.595 62.9444C73.9057 61.9703 74.9556 61.5798 75.7983 61.161C75.8504 61.1339 75.9097 61.124 75.9678 61.1328C76.1241 59.6373 76.0173 58.126 75.6524 56.6673C75.6041 55.5944 75.2 54.568 74.5036 53.75C74.5036 53.7124 74.4707 53.6794 74.4518 53.6465C74.2776 53.3406 74.0893 53.0583 73.8916 52.776C73.6354 52.4143 73.3554 52.07 73.0535 51.7455C71.0007 49.6414 68.2503 48.3581 65.3182 48.1365C65.3182 48.1694 65.3465 48.1835 65.3512 48.2164C65.3491 48.2305 65.3491 48.2448 65.3512 48.2588C64.9773 48.1542 64.5966 48.0756 64.2119 48.0235C63.5716 47.934 62.9196 47.9837 62.3004 48.1694C60.5117 48.3377 58.7716 48.8456 57.1734 49.6657C55.6354 50.2536 54.2371 51.1559 53.068 52.3149C51.054 54.3452 49.7355 56.9611 49.3015 59.787C49.1565 60.2728 49.0805 60.7765 49.0756 61.2834C49.0786 61.5684 49.1006 61.8529 49.1415 62.135C49.1133 62.4324 49.1133 62.7317 49.1415 63.0291C49.1921 63.6603 49.3316 64.2813 49.5558 64.8736C49.5887 65.0477 49.617 65.2265 49.6452 65.3959C49.6578 65.3949 49.6704 65.3949 49.6829 65.3959ZM68.6751 59.2788C68.874 59.7035 69.0316 60.1463 69.1459 60.6011C69.2999 61.1088 69.421 61.6259 69.5084 62.1491C69.6662 63.0234 69.6518 63.9201 69.466 64.7889C69.2871 65.537 68.9011 66.5816 68.0772 66.8357C67.2532 67.0898 66.4623 66.4734 65.9774 65.8617C65.7242 65.5084 65.439 65.1792 65.1252 64.8783C64.7855 64.6221 64.4135 64.4117 64.0188 64.2525C63.3173 63.9231 62.3287 63.4996 62.1827 62.6479C62.1517 62.2092 62.211 61.7688 62.3569 61.3539C62.4459 61 62.5787 60.6586 62.7524 60.3376C62.923 60.0123 63.1784 59.7392 63.4915 59.5471C63.8729 59.3353 64.3249 59.3165 64.7203 59.133C65.436 58.7989 66.1327 58.2201 66.9519 58.3189C67.2043 58.2981 67.4583 58.3253 67.7005 58.3989C67.9161 58.4755 68.1144 58.594 68.2841 58.7474C68.4538 58.9008 68.5914 59.0862 68.6892 59.293L68.6751 59.2788ZM55.7139 50.6821C55.6809 50.3386 56.2318 50.3386 56.2647 50.6821C56.3636 51.7079 55.8881 52.6866 55.9775 53.7029C56.1033 54.2386 56.2782 54.7616 56.5001 55.2651C56.6218 55.7683 56.6943 56.282 56.7167 56.7991C56.7328 57.2627 56.7895 57.7241 56.8862 58.1778C56.9333 58.366 57.0086 58.606 57.2487 58.5919C57.4326 58.5661 57.6118 58.5138 57.7807 58.4366C58.5126 58.1467 59.1057 57.5877 59.4379 56.8744C59.7628 56.1639 59.7863 55.2087 60.6291 54.8699C60.8159 54.8117 61.0129 54.7929 61.2074 54.8147C61.4019 54.8366 61.5897 54.8987 61.759 54.9969C61.9401 55.0803 62.1392 55.1171 62.3382 55.104C62.5372 55.0908 62.7298 55.0281 62.8983 54.9216C63.2313 54.7102 63.5808 54.5261 63.9435 54.3711C64.3733 54.2473 64.8254 54.2215 65.2665 54.2958C66.3211 54.4088 67.3709 54.5264 68.4255 54.6346C68.897 54.7124 69.3801 54.6819 69.838 54.5452C70.1646 54.4023 70.4665 54.2085 70.7325 53.9712C71.2422 53.4486 71.8567 53.0397 72.5357 52.7713C72.6019 52.7607 72.6696 52.7749 72.7261 52.811C72.7825 52.8472 72.8237 52.9028 72.8417 52.9674C72.8598 53.0319 72.8534 53.1008 72.8239 53.161C72.7943 53.2211 72.7437 53.2683 72.6816 53.2936C71.8389 53.5383 71.2692 54.2958 70.5818 54.7664C69.6402 55.3922 68.5527 55.1946 67.4792 55.0816L65.8408 54.9028C65.3257 54.8056 64.799 54.785 64.2778 54.8417C63.4915 55.011 62.9172 55.7827 62.0556 55.651C61.6648 55.5992 61.227 55.2134 60.8315 55.3592C60.436 55.5051 60.243 56.1074 60.1253 56.5121C59.91 57.2926 59.4434 57.9806 58.7976 58.4695C58.2986 58.846 57.2016 59.4718 56.6414 58.9401C56.4004 58.6202 56.2714 58.23 56.2741 57.8296C56.2082 57.359 56.1894 56.8462 56.1423 56.3568C56.0894 55.8344 55.956 55.3233 55.7468 54.8417C55.543 54.4229 55.4291 53.966 55.4126 53.5006C55.4126 52.5313 55.8033 51.6326 55.7139 50.6821Z" fill="#016450"/>
<path d="M74.0941 62.9582C73.8775 63.4288 74.1411 63.9417 74.3954 64.3698L74.4425 64.4498H74.5319C74.6025 64.4498 74.6779 64.4498 74.7485 64.4781C74.8658 64.4864 74.9822 64.5037 75.0969 64.5298C75.4379 63.6038 75.6825 62.6451 75.8266 61.6689C75.53 61.8148 75.2334 61.9607 74.9462 62.1395C74.5784 62.3093 74.2783 62.5976 74.0941 62.9582V62.9582Z" fill="#016450"/>
<path d="M67.1026 58.8692C67.0653 58.8766 67.027 58.8766 66.9897 58.8692H66.9379C66.7448 58.8692 66.5471 58.9163 66.3588 58.9445H66.2929C65.7891 59.1092 65.3513 59.4715 64.8522 59.6738C64.463 59.7726 64.082 59.9017 63.7129 60.0597C63.4338 60.2567 63.2192 60.5317 63.0961 60.8502C62.9711 61.1542 62.8749 61.4693 62.8089 61.7913C62.7338 61.9687 62.7048 62.1623 62.7245 62.354C62.7443 62.5456 62.8122 62.7292 62.9219 62.8876C63.3927 63.4382 64.1884 63.6593 64.8051 63.9887C65.1383 64.1574 65.4446 64.3746 65.7138 64.6333C65.957 64.9007 66.1864 65.1802 66.4012 65.4709C66.7872 65.9414 67.5546 66.6896 68.2043 66.1673C68.4925 65.885 68.7033 65.5334 68.8164 65.1462C68.9435 64.8016 69.0289 64.443 69.0706 64.0781C69.1407 63.3064 69.0899 62.5285 68.9199 61.7725C68.7876 61.0261 68.563 60.299 68.2514 59.608C68.1822 59.4373 68.0764 59.284 67.9413 59.1588C67.8063 59.0335 67.6453 58.9395 67.4699 58.8833C67.3484 58.8649 67.2252 58.8601 67.1026 58.8692V58.8692Z" fill="#016450"/>
<path d="M79.3906 58.0742C79.2981 57.2456 79.1613 56.4225 78.981 55.6085C78.9386 55.3827 78.9151 55.1004 78.8539 54.8557C78.7927 54.611 78.675 54.2487 78.5667 53.9522C78.0834 52.5976 77.4519 51.3004 76.6835 50.0844C76.6129 49.9762 76.5375 49.8632 76.4575 49.7597C77.0131 49.1323 77.5639 48.4908 78.11 47.8352C78.4443 47.44 77.9029 46.8941 77.5215 47.2565C76.0118 48.7402 74.5052 50.2256 73.0018 51.7125C73.3015 52.039 73.5813 52.3831 73.8398 52.743C74.4848 52.023 75.1251 51.2937 75.7607 50.5691C76.0385 51.0725 76.3163 51.5807 76.5799 52.0936C76.5934 52.1284 76.6108 52.1615 76.6317 52.1924C76.6876 52.2765 76.7658 52.3434 76.8577 52.3853C76.9848 52.6441 77.1119 52.9029 77.2296 53.1664C77.5021 53.7616 77.7287 54.3766 77.9076 55.0062C77.9405 55.1192 77.9688 55.2368 77.9923 55.3544L78.0206 55.505C78.0206 55.505 78.0206 55.5897 78.0206 55.6132C78.0582 56.0179 78.1948 56.4226 78.2654 56.8272C78.7942 59.9913 78.3749 63.241 77.0601 66.1675C75.7613 69.1539 73.6792 71.734 71.0339 73.6349C69.971 74.4032 68.7871 74.9884 67.5311 75.3665C65.2864 76.0183 62.9318 76.2034 60.6127 75.9104C58.2936 75.6174 56.0592 74.8526 54.0473 73.6632C53.8307 73.522 53.6142 73.3761 53.407 73.2256C53.8778 72.8209 54.3157 72.4115 54.7676 72.0022C54.3715 71.8292 53.9957 71.613 53.6471 71.3575C52.5125 72.5386 51.3732 73.7102 50.2432 74.896C50.2011 74.9295 50.167 74.972 50.1436 75.0205C50.1202 75.069 50.108 75.1221 50.108 75.1759C50.108 75.2298 50.1202 75.2829 50.1436 75.3314C50.167 75.3799 50.2011 75.4224 50.2432 75.4559C50.2799 75.4979 50.3251 75.5315 50.3759 75.5545C50.4266 75.5776 50.4817 75.5895 50.5375 75.5895C50.5932 75.5895 50.6483 75.5776 50.6991 75.5545C50.7498 75.5315 50.7951 75.4979 50.8317 75.4559L52.682 73.842C55.4121 75.787 58.6617 76.8717 62.0133 76.9569C62.5265 76.9569 63.0491 76.9569 63.5764 76.9569C63.5924 79.3051 63.8098 81.6475 64.2261 83.9586C62.3177 84.0496 60.4141 84.1829 58.5152 84.3585H58.487H58.4399H58.4069C58.3852 84.3683 58.3659 84.3827 58.3504 84.4009V84.4009C58.3172 84.4413 58.299 84.492 58.299 84.5444C58.299 84.5968 58.3172 84.6475 58.3504 84.6879C58.3658 84.712 58.3865 84.7323 58.411 84.747C58.4356 84.7617 58.4632 84.7705 58.4917 84.7726C62.7211 85.5883 67.0829 85.4014 71.2269 84.2268C71.2893 84.2187 71.346 84.1861 71.3844 84.1363C71.4228 84.0864 71.4398 84.0233 71.4317 83.9609C71.4236 83.8985 71.391 83.8419 71.3411 83.8035C71.2912 83.7651 71.2281 83.7481 71.1657 83.7562C69.1726 83.7374 67.1827 83.7688 65.1959 83.8504C65.2173 83.7964 65.2284 83.739 65.2289 83.681C65.2571 81.38 65.2289 79.0744 65.0735 76.7781C66.9652 76.5886 68.7973 76.0103 70.4548 75.0795C73.3585 73.3294 75.7312 70.8229 77.3191 67.8285C78.927 64.8413 79.6459 61.4566 79.3906 58.0742V58.0742Z" fill="#016450"/>
<path d="M82.8778 16.2698L83.7453 17.0114L86.7618 13.4829C87.4688 12.656 88.5712 12.5869 89.2475 13.1651C89.9054 13.7275 89.9972 14.5503 89.4473 15.1936L86.1417 19.0601L87.0238 19.8143L90.166 16.1388C90.7882 15.4111 91.7027 15.2641 92.4966 15.9428C93.1141 16.4707 93.3637 17.2503 92.6504 18.0847L89.4202 21.863L90.2876 22.6046L93.5178 18.8262C94.6522 17.4994 94.4639 16.276 93.4568 15.415C92.6482 14.7237 91.7391 14.589 90.9491 14.9252L90.8903 14.8749C91.1263 14.0333 90.9355 13.2594 90.193 12.6247C89.4579 11.9962 88.6123 11.884 87.8617 12.2857L87.7882 12.2228L88.5424 11.3407L87.7044 10.6243L82.8778 16.2698Z" fill="#016450"/>
<path d="M93.2278 26.4447C94.12 27.3847 95.1105 27.4177 95.6345 27.268L95.6745 27.3101L94.9169 27.9716L95.7025 28.7994L99.3886 25.5807C101.166 24.0286 100.132 22.5458 99.4793 21.8583C98.707 21.0446 97.5368 20.3731 96.1174 20.8428L96.5717 21.8829C97.1528 21.709 97.9993 21.7588 98.7483 22.5479C99.4707 23.309 99.408 24.0501 98.6904 24.6766L98.6613 24.7021C98.246 25.0646 97.8963 24.626 96.8331 23.7584C95.7496 22.8765 94.4848 21.9861 93.2027 23.1056C92.11 24.0598 92.2558 25.4205 93.2278 26.4447ZM94.1198 25.8967C93.494 25.2373 93.3473 24.4931 93.9446 23.9715C94.6003 23.399 95.3502 23.7961 96.0501 24.3652C96.4267 24.6777 97.4208 25.5286 97.7288 25.5163L96.942 26.2033C96.2427 26.8139 95.0519 26.8787 94.1198 25.8967Z" fill="#016450"/>
<path d="M97.8316 32.1888C98.7026 33.3246 99.7441 33.2253 100.238 33.2043L100.321 33.3117L99.3622 33.9313L100.033 34.8061L108.35 29.4297L107.655 28.5241L104.585 30.5088L104.527 30.432C104.698 30.0225 105.175 29.1864 104.292 28.0353C103.15 26.5465 101.111 26.3267 99.1454 27.5974C97.1637 28.8785 96.7015 30.7154 97.8316 32.1888ZM98.7866 31.7551C97.9156 30.6193 98.5241 29.3535 99.8561 28.4924C101.172 27.6418 102.631 27.5482 103.514 28.6993C104.361 29.8044 103.866 30.9967 102.469 31.8998C101.056 32.8133 99.6224 32.8448 98.7866 31.7551Z" fill="#016450"/>
<path d="M102.384 39.205C103.169 40.4933 104.428 41.1181 105.627 40.9444L105.334 39.8731C104.481 39.9501 103.78 39.5386 103.314 38.7747C102.617 37.6309 102.922 36.4789 104.339 35.7657L107.145 40.3696L107.584 40.1666C110.094 39.0055 110.099 37.2038 109.293 35.8825C108.246 34.1648 106.112 33.691 104.041 34.6491C101.969 35.6072 101.267 37.3717 102.384 39.205ZM105.234 35.3516C106.323 34.9325 107.683 35.198 108.363 36.3128C109.007 37.3698 108.577 38.4367 107.436 38.9645L105.234 35.3516Z" fill="#016450"/>
<path d="M107.941 50.4764C108.583 52.3828 110.522 53.4141 112.792 53.0346C115.082 52.6519 116.157 51.1168 115.515 49.2103C114.873 47.3039 112.934 46.2727 110.644 46.6554C108.374 47.0349 107.299 48.57 107.941 50.4764ZM108.952 50.3074C108.464 48.8592 109.539 47.9825 111.008 47.7369C112.477 47.4913 114.016 47.9312 114.504 49.3794C114.991 50.8275 113.897 51.7075 112.428 51.953C110.959 52.1986 109.44 51.7555 108.952 50.3074Z" fill="#016450"/>
<path d="M113.644 55.4813C114.939 55.4299 115.839 56.1862 116.064 57.2556C116.282 58.2919 115.724 58.9486 114.559 58.9948L109.921 59.1789L110.156 60.2956L114.872 60.1085C116.766 60.0333 117.466 59.0083 117.156 57.5368C116.925 56.439 116.279 55.7775 115.453 55.4667L115.433 55.3721L116.593 55.3261L116.366 54.2472L108.944 54.5417L109.179 55.6584L113.644 55.4813Z" fill="#016450"/>
<path d="M110.484 70.2315C110.421 71.7389 111.114 72.9884 112.2 73.5562L112.549 72.5153C111.803 72.0737 111.452 71.3263 111.489 70.4325C111.545 69.0942 112.433 68.3411 113.995 68.5999L113.769 73.9869L114.243 74.0817C116.956 74.624 117.954 73.1672 118.019 71.6211C118.103 69.6113 116.603 67.9669 114.365 67.5194C112.127 67.0719 110.574 68.0864 110.484 70.2315ZM114.962 68.7933C116.092 69.0972 117.068 70.1157 117.013 71.4201C116.962 72.657 116.018 73.2673 114.785 73.0208L114.962 68.7933Z" fill="#016450"/>
<path d="M109.8 76.0882C109.575 77.3645 110.121 78.2432 110.541 78.6191L110.531 78.6762L109.573 78.3699L109.375 79.4938L114.036 80.984C116.284 81.7026 116.854 80.0135 117.018 79.0801C117.213 77.9752 117.066 76.6002 115.877 75.6165L115.321 76.5654C115.793 76.9779 116.242 77.7404 116.054 78.8119C115.872 79.8453 115.252 80.1855 114.345 79.8954L114.308 79.8837C113.783 79.7158 113.926 79.1781 113.995 77.7917C114.064 76.38 114.035 74.8061 112.414 74.2878C111.032 73.8461 110.045 74.6976 109.8 76.0882ZM110.746 76.5718C110.904 75.6765 111.405 75.1525 112.16 75.394C112.989 75.6591 113.11 76.5225 113.066 77.4341C113.037 77.928 112.941 79.2455 113.129 79.5067L112.134 79.1886C111.25 78.9059 110.511 77.9052 110.746 76.5718Z" fill="#016450"/>
<path d="M108.667 81.3106L108.317 82.3968L112.612 84.3057C113.531 84.7141 113.959 85.7674 113.627 86.7983C113.533 87.0883 113.384 87.3639 113.343 87.4296L114.403 87.901C114.452 87.7806 114.553 87.4992 114.605 87.3381C114.878 86.4913 114.656 85.5507 114.067 84.9945L114.091 84.9208L115.116 85.3765L115.454 84.3271L108.667 81.3106Z" fill="#016450"/>
<path d="M111.496 93.3059L112.19 91.8802L113.731 92.7714L114.231 91.7455L112.69 90.8543L113.182 89.8459L112.345 89.3615L111.853 90.37L107.835 88.0451C106.714 87.3961 105.72 88.025 105.296 88.8944C105.11 89.2769 105.058 89.5591 105.041 89.7272L106.03 90.032C106.055 89.9354 106.09 89.7769 106.2 89.5509C106.42 89.0988 106.766 88.7416 107.603 89.226L111.353 91.3958L110.658 92.8216L111.496 93.3059Z" fill="#016450"/>
<path d="M107.382 94.69C108.43 95.4527 108.558 96.5687 107.924 97.4999C107.32 98.3871 106.408 98.5241 105.454 97.8297L101.701 95.0975L101.058 96.0406L104.874 98.8184C106.418 99.9426 107.713 99.6299 108.568 98.375C109.227 97.4079 109.208 96.5689 108.782 95.8286L108.836 95.7487L111.776 97.8889L112.419 96.9458L104.412 91.1171L103.77 92.0602L107.382 94.69Z" fill="#016450"/>
<path d="M42.1886 108.409L41.394 107.59L38.062 110.822C37.281 111.58 36.177 111.546 35.5575 110.907C34.9548 110.286 34.94 109.458 35.5474 108.869L39.1987 105.327L38.3907 104.494L34.9198 107.861C34.2326 108.527 33.3084 108.589 32.5811 107.839C32.0155 107.256 31.8395 106.456 32.6274 105.692L36.1954 102.231L35.4008 101.412L31.8328 104.873C30.5798 106.088 30.6534 107.324 31.5759 108.275C32.3167 109.039 33.2093 109.257 34.0271 108.996L34.081 109.052C33.7677 109.868 33.8857 110.656 34.5658 111.357C35.2392 112.051 36.0707 112.242 36.8554 111.912L36.9227 111.981L36.0897 112.789L36.8574 113.581L42.1886 108.409Z" fill="#016450"/>
<path d="M32.8308 97.3146C32.0301 96.2956 31.0469 96.1705 30.5112 96.2708L30.4754 96.2251L31.2913 95.637L30.5862 94.7397L26.6164 97.6012C24.7021 98.9811 25.5939 100.554 26.1795 101.299C26.8727 102.181 27.9753 102.959 29.4322 102.623L29.0767 101.545C28.482 101.664 27.6438 101.536 26.9715 100.68C26.3232 99.8554 26.4546 99.1234 27.2274 98.5664L27.2587 98.5438C27.7059 98.2214 28.0133 98.6907 28.9911 99.6535C29.9878 100.632 31.1641 101.637 32.5449 100.641C33.7218 99.7932 33.7033 98.4248 32.8308 97.3146ZM31.8917 97.7772C32.4534 98.4919 32.5302 99.2465 31.8869 99.7103C31.1808 100.219 30.4711 99.754 29.8272 99.1223C29.4813 98.776 28.5708 97.8363 28.263 97.8199L29.1103 97.2091C29.8634 96.6662 31.0551 96.7126 31.8917 97.7772Z" fill="#016450"/>
<path d="M28.7821 91.1667C28.0206 89.9548 26.9743 89.9567 26.4804 89.9316L26.4084 89.8169L27.4203 89.2893L26.8337 88.3558L18.0525 92.9345L18.6596 93.9008L21.9011 92.2106L21.9526 92.2925C21.7433 92.6843 21.1911 93.4723 21.9629 94.7007C22.9611 96.2893 24.9712 96.698 27.0464 95.6159C29.1388 94.5249 29.77 92.739 28.7821 91.1667ZM27.7907 91.5097C28.5523 92.7216 27.8285 93.9252 26.4221 94.6586C25.0329 95.3829 23.5717 95.3404 22.7998 94.112C22.0589 92.9328 22.6626 91.7918 24.1376 91.0227C25.6297 90.2447 27.0601 90.3468 27.7907 91.5097Z" fill="#016450"/>
<path d="M24.9026 83.7571C24.2407 82.4013 23.0459 81.6621 21.8355 81.7233L22.0274 82.8172C22.8841 82.82 23.5437 83.295 23.9361 84.0989C24.5237 85.3026 24.1128 86.4212 22.6363 86.9995L20.2711 82.1543L19.8152 82.3156C17.2075 83.2379 17.0352 85.0314 17.7141 86.4219C18.5965 88.2296 20.6773 88.9001 22.8291 88.139C24.9808 87.3779 25.8444 85.6864 24.9026 83.7571ZM21.7063 87.3284C20.5828 87.6443 19.2533 87.2533 18.6805 86.0801C18.1375 84.9676 18.6649 83.9454 19.8502 83.5262L21.7063 87.3284Z" fill="#016450"/>
<path d="M20.4193 72.0173C19.9577 70.0593 18.1229 68.852 15.8272 69.0185C13.5121 69.1864 12.2989 70.6147 12.7605 72.5727C13.2222 74.5306 15.057 75.7379 17.372 75.57C19.6677 75.4035 20.881 73.9752 20.4193 72.0173ZM19.3969 72.0914C19.7476 73.5787 18.5956 74.3515 17.1101 74.4593C15.6246 74.567 14.1337 73.9858 13.783 72.4985C13.4323 71.0113 14.6036 70.237 16.0891 70.1293C17.5745 70.0215 19.0462 70.6041 19.3969 72.0914Z" fill="#016450"/>
<path d="M15.2071 66.5031C13.913 66.4337 13.0875 65.5968 12.9628 64.5111C12.8421 63.459 13.4592 62.8571 14.6229 62.9196L19.2584 63.1682L19.1282 62.0345L14.4155 61.7817C12.5227 61.6801 11.7301 62.6355 11.9017 64.1295C12.0296 65.2441 12.6112 65.9628 13.4042 66.3491L13.4152 66.4452L12.2563 66.383L12.3821 67.4783L19.7989 67.8762L19.6687 66.7424L15.2071 66.5031Z" fill="#016450"/>
<path d="M19.7268 52.1112C19.93 50.6162 19.3557 49.3076 18.3278 48.6412L17.8828 49.645C18.585 50.1542 18.8651 50.931 18.7446 51.8174C18.5642 53.1447 17.6105 53.8119 16.0791 53.4088L16.8053 48.0662L16.342 47.9277C13.692 47.1352 12.5625 48.4928 12.3541 50.0261C12.0832 52.0193 13.423 53.7962 15.6097 54.4502C17.7964 55.1041 19.4376 54.2386 19.7268 52.1112ZM15.134 53.1261C14.0372 52.7184 13.1605 51.6135 13.3363 50.3198C13.503 49.0931 14.4994 48.5733 15.7039 48.9336L15.134 53.1261Z" fill="#016450"/>
<path d="M20.953 46.3436C21.2957 45.0938 20.8342 44.1681 20.4507 43.7548L20.466 43.6988L21.3914 44.0929L21.6932 42.9924L17.191 41.0747C15.0199 40.15 14.2951 41.7786 14.0444 42.6927C13.7477 43.7746 13.766 45.1573 14.8582 46.2475L15.5005 45.3545C15.0688 44.8998 14.6922 44.0988 14.98 43.0495C15.2575 42.0375 15.906 41.7565 16.7824 42.1298L16.818 42.1449C17.3251 42.361 17.1323 42.883 16.9344 44.2569C16.7345 45.6561 16.617 47.2258 18.183 47.8928C19.5177 48.4613 20.5796 47.7053 20.953 46.3436ZM20.0559 45.774C19.8155 46.6507 19.2678 47.1258 18.5382 46.815C17.7374 46.4739 17.698 45.603 17.8266 44.6995C17.9011 44.2104 18.1193 42.9075 17.9569 42.63L18.9178 43.0394C19.772 43.4032 20.414 44.4683 20.0559 45.774Z" fill="#016450"/>
<path d="M22.567 41.2495L23.0168 40.2007L18.9181 37.9002C18.041 37.4079 17.7126 36.3193 18.1395 35.3239C18.2596 35.0439 18.4341 34.7834 18.4814 34.7218L17.4694 34.1537C17.4095 34.269 17.2829 34.5398 17.2162 34.6954C16.8655 35.5131 16.9991 36.4703 17.5333 37.0789L17.5028 37.15L16.5245 36.6009L16.09 37.6142L22.567 41.2495Z" fill="#016450"/>
<path d="M20.8678 29.0425L20.0432 30.3974L18.5926 29.3667L17.9993 30.3415L19.4499 31.3722L18.8666 32.3305L19.655 32.8907L20.2382 31.9324L24.0224 34.6213C25.0788 35.3719 26.1264 34.8382 26.6292 34.0121C26.8505 33.6486 26.9282 33.3725 26.9613 33.2067L26.005 32.8111C25.9705 32.905 25.9215 33.0595 25.7908 33.2743C25.5293 33.7039 25.1518 34.0274 24.3634 33.4672L20.8316 30.9576L21.6562 29.6027L20.8678 29.0425Z" fill="#016450"/>
<path d="M25.092 28.0477C24.1199 27.1908 24.0957 26.0676 24.814 25.1996C25.4983 24.3725 26.4192 24.321 27.3043 25.1012L30.7866 28.171L31.5141 27.2917L27.9738 24.1708C26.541 22.9077 25.2226 23.0985 24.2546 24.2683C23.5086 25.1699 23.4495 26.007 23.8043 26.7837L23.7427 26.8582L21.0149 24.4535L20.2874 25.3328L27.7162 31.8816L28.4437 31.0024L25.092 28.0477Z" fill="#016450"/>
</svg>
