<svg width="94" height="94" viewBox="0 0 94 94" fill="none" xmlns="http://www.w3.org/2000/svg">
<path d="M47 94C72.9574 94 94 72.9574 94 47C94 21.0426 72.9574 0 47 0C21.0426 0 0 21.0426 0 47C0 72.9574 21.0426 94 47 94Z" fill="#CEF564"/>
<path d="M54.8312 82.9352C56.8038 82.538 57.9087 83.7018 58.2133 85.2128C58.5179 86.7243 57.9515 88.225 55.9752 88.6259C54.0021 89.0231 52.8971 87.8594 52.5926 86.3516C52.288 84.8439 52.8581 83.3328 54.8312 82.9352Z" fill="#016450"/>
<path d="M41.6415 12.336C39.6581 12.6766 38.5885 11.4775 38.3299 9.95904C38.0714 8.44066 38.6841 6.95771 40.6675 6.6171C42.6509 6.27654 43.7206 7.47565 43.9791 8.99408C44.2376 10.5125 43.6249 11.999 41.6415 12.336Z" fill="#016450"/>
<path d="M38.4429 50.2053C38.3974 50.0486 38.3311 49.8987 38.2458 49.7596C38.1612 49.5992 38.1229 49.4186 38.1351 49.2378C38.1351 49.1099 38.1905 49.0201 38.066 48.9406C37.9899 48.9032 37.9099 48.8742 37.8274 48.8542L36.5413 48.4534C36.7032 49.035 37.0255 49.5595 37.4713 49.9669C37.7475 50.416 38.0622 50.8403 38.4117 51.2351C38.3563 51.1133 38.3258 50.9817 38.3218 50.848C38.3149 50.6407 38.474 50.423 38.4429 50.2053Z" fill="#016450"/>
<path d="M36.4861 48.025C36.9908 48.1805 37.4991 48.3325 38.0004 48.4949C38.1781 48.5341 38.3383 48.6299 38.4568 48.7679C38.5882 48.9545 38.5121 49.1135 38.5225 49.3381C38.5225 49.6836 38.8337 49.9186 38.8371 50.2607C38.8371 50.468 38.7057 50.6477 38.7127 50.8516C38.741 51.0394 38.8172 51.2167 38.9339 51.3665C39.3788 51.9745 40.0081 52.4229 40.7283 52.645C41.5931 52.9175 42.4942 53.0573 43.401 53.0597C43.5822 53.0743 43.7643 53.0437 43.9308 52.9708C44.0973 52.8978 44.2432 52.7847 44.3552 52.6416C44.5202 52.4189 44.6464 52.1701 44.7286 51.9055C44.2766 51.6443 43.891 51.2825 43.6015 50.8481C43.2004 50.2953 42.8305 49.7251 42.4467 49.1618C42.2879 48.8663 42.089 48.5942 41.8555 48.3532C41.5943 48.1911 41.3044 48.0809 41.0015 48.0284C40.706 47.9557 40.4055 47.9049 40.1026 47.8764C39.8502 47.8522 39.5943 47.8764 39.3454 47.8142C39.1532 47.7867 38.9775 47.6908 38.8504 47.5442C38.7234 47.3975 38.6536 47.2099 38.6539 47.016C38.6539 46.6358 38.8717 46.2868 38.8821 45.9102C38.8821 45.6821 38.7369 45.6268 38.6124 45.4575C38.4499 45.2364 38.5709 45.0083 38.5744 44.7664C38.5457 44.4586 38.4984 44.1528 38.4326 43.8507C38.4015 43.595 38.3911 43.3324 38.3842 43.0732C38.3842 42.0365 38.5017 40.9204 37.8967 40.015C37.7549 39.8008 38.1041 39.6004 38.2424 39.8146C38.9028 40.7995 38.7611 42.0158 38.7853 43.1388C38.7875 43.4235 38.8106 43.7076 38.8544 43.9889C38.9141 44.2446 38.9534 44.5045 38.972 44.7664C38.972 44.915 38.8786 45.1431 38.972 45.2605C39.0653 45.378 39.1172 45.3884 39.1725 45.4748C39.2552 45.607 39.295 45.7614 39.2866 45.9171C39.2866 46.2834 39.0826 46.6082 39.0619 46.9814C39.0307 47.5101 39.6704 47.4479 40.0472 47.479C40.6392 47.5211 41.2217 47.6504 41.776 47.8626C42.343 48.0872 42.6161 48.6642 42.9411 49.1411C43.2661 49.618 43.6119 50.1467 43.9784 50.6339C44.2577 51.0703 44.6527 51.4208 45.1193 51.6464C45.1574 51.6684 45.1871 51.7023 45.204 51.7429C45.2208 51.7835 45.2239 51.8285 45.2127 51.871C44.9914 52.6174 44.5488 53.3983 43.6741 53.4674C43.187 53.4829 42.6996 53.4516 42.2185 53.3741C41.7683 53.3273 41.3229 53.2418 40.8874 53.1184C40.7387 53.0735 40.5901 53.0217 40.4448 52.9664C41.0969 53.3783 41.7926 53.7167 42.5193 53.9754C45.0951 54.9049 48.3278 54.4592 50.6478 53.032C52.631 51.7925 54.1724 49.9593 55.0526 47.7934H55.0076L54.7345 47.7589C54.6502 47.7534 54.5689 47.7259 54.4985 47.6792C54.4282 47.6325 54.3713 47.5683 54.3334 47.4928C54.1971 47.3145 54.1008 47.1089 54.0513 46.8901C54.0018 46.6712 54.0001 46.4442 54.0465 46.2246C54.2747 45.5093 55.0457 45.2225 55.6646 44.915C55.7028 44.8951 55.7464 44.8878 55.789 44.8943C55.9038 43.796 55.8254 42.6862 55.5574 41.615C55.522 40.827 55.2252 40.0733 54.7138 39.4725C54.7138 39.4449 54.6896 39.4207 54.6757 39.3965C54.5478 39.1719 54.4095 38.9646 54.2643 38.7572C54.0762 38.4916 53.8706 38.2388 53.6489 38.0005C52.1413 36.4553 50.1215 35.5129 47.9683 35.3501C47.9683 35.3743 47.989 35.3846 47.9925 35.4088C47.991 35.4191 47.991 35.4296 47.9925 35.4399C47.7179 35.3631 47.4383 35.3054 47.1558 35.2672C46.6856 35.2014 46.2068 35.2379 45.752 35.3743C44.4385 35.4979 43.1606 35.8708 41.9869 36.4731C40.8574 36.9049 39.8305 37.5675 38.972 38.4186C37.493 39.9097 36.5246 41.8307 36.206 43.906C36.0995 44.2627 36.0436 44.6326 36.04 45.0048C36.0423 45.2142 36.0584 45.4231 36.0884 45.6303C36.0677 45.8486 36.0677 46.0685 36.0884 46.2868C36.1256 46.7504 36.2281 47.2064 36.3927 47.6414C36.4169 47.7693 36.4376 47.9006 36.4584 48.025C36.4676 48.0242 36.4768 48.0242 36.4861 48.025ZM50.4334 43.5328C50.5795 43.8446 50.6953 44.1698 50.7792 44.5038C50.8923 44.8766 50.9812 45.2564 51.0454 45.6407C51.1613 46.2827 51.1507 46.9412 51.0143 47.5792C50.8829 48.1286 50.5994 48.8958 49.9943 49.0824C49.3893 49.269 48.8084 48.8163 48.4523 48.3671C48.2664 48.1076 48.0569 47.8658 47.8265 47.6449C47.577 47.4567 47.3038 47.3022 47.014 47.1853C46.4988 46.9434 45.7728 46.6324 45.6656 46.0069C45.6428 45.6848 45.6864 45.3614 45.7935 45.0567C45.8588 44.7968 45.9564 44.546 46.084 44.3103C46.2092 44.0714 46.3968 43.8708 46.6268 43.7297C46.9068 43.5742 47.2387 43.5604 47.5292 43.4257C48.0547 43.1803 48.5664 42.7553 49.168 42.8279C49.3533 42.8126 49.5398 42.8325 49.7177 42.8866C49.8761 42.9429 50.0217 43.0298 50.1463 43.1425C50.2709 43.2552 50.372 43.3913 50.4438 43.5431L50.4334 43.5328ZM40.9151 37.2195C40.8908 36.9673 41.2954 36.9673 41.3196 37.2195C41.3922 37.9728 41.043 38.6916 41.1087 39.438C41.201 39.8314 41.3295 40.2154 41.4924 40.5852C41.5818 40.9547 41.6351 41.332 41.6515 41.7117C41.6633 42.0522 41.705 42.391 41.776 42.7242C41.8105 42.8624 41.8659 43.0386 42.0422 43.0283C42.1773 43.0094 42.3089 42.971 42.4329 42.9142C42.9704 42.7014 43.4059 42.2909 43.6499 41.767C43.8885 41.2452 43.9058 40.5437 44.5246 40.2949C44.6619 40.2522 44.8065 40.2384 44.9493 40.2545C45.0922 40.2705 45.2301 40.3161 45.3544 40.3882C45.4874 40.4495 45.6337 40.4765 45.7798 40.4669C45.9259 40.4572 46.0673 40.4112 46.1911 40.333C46.4356 40.1777 46.6923 40.0425 46.9587 39.9287C47.2743 39.8377 47.6063 39.8188 47.9302 39.8734C48.7047 39.9563 49.4757 40.0427 50.2502 40.1222C50.5964 40.1793 50.9512 40.1569 51.2874 40.0565C51.5273 39.9516 51.749 39.8093 51.9443 39.6349C52.3187 39.2512 52.7699 38.9509 53.2685 38.7538C53.3172 38.746 53.3669 38.7564 53.4084 38.783C53.4498 38.8095 53.4801 38.8504 53.4933 38.8978C53.5066 38.9452 53.5019 38.9958 53.4802 39.04C53.4585 39.0841 53.4213 39.1188 53.3757 39.1373C52.7568 39.317 52.3385 39.8734 51.8337 40.2189C51.1422 40.6785 50.3435 40.5334 49.5552 40.4504L48.352 40.3191C47.9737 40.2477 47.5869 40.2326 47.2042 40.2742C46.6268 40.3986 46.205 40.9653 45.5722 40.8686C45.2853 40.8306 44.9637 40.5472 44.6733 40.6543C44.3829 40.7614 44.2411 41.2038 44.1547 41.5009C43.9966 42.0742 43.6539 42.5794 43.1797 42.9384C42.8132 43.2149 42.0076 43.6745 41.5962 43.284C41.4192 43.0491 41.3245 42.7625 41.3265 42.4685C41.2781 42.1229 41.2643 41.7463 41.2297 41.3869C41.1908 41.0033 41.0928 40.6279 40.9393 40.2742C40.7895 39.9667 40.7059 39.6312 40.6938 39.2894C40.6938 38.5776 40.9807 37.9175 40.9151 37.2195Z" fill="#016450"/>
<path d="M54.4129 46.2349C54.2538 46.5805 54.4474 46.9571 54.6341 47.2716L54.6687 47.3303H54.7344C54.7863 47.3303 54.8416 47.3303 54.8934 47.351C54.9796 47.3572 55.0651 47.3699 55.1493 47.389C55.3998 46.709 55.5794 46.005 55.6852 45.2881C55.4674 45.3952 55.2496 45.5023 55.0387 45.6336C54.7685 45.7583 54.5482 45.9701 54.4129 46.2349Z" fill="#016450"/>
<path d="M49.2787 43.2316C49.2513 43.237 49.2231 43.237 49.1957 43.2316H49.1577C49.0159 43.2316 48.8707 43.2661 48.7324 43.2868H48.684C48.3141 43.4078 47.9925 43.6739 47.626 43.8225C47.3402 43.895 47.0604 43.9898 46.7893 44.1058C46.5844 44.2505 46.4268 44.4524 46.3364 44.6863C46.2446 44.9096 46.174 45.141 46.1255 45.3774C46.0703 45.5078 46.049 45.6499 46.0635 45.7907C46.078 45.9314 46.1279 46.0662 46.2085 46.1826C46.5542 46.5869 47.1385 46.7493 47.5914 46.9912C47.8361 47.115 48.061 47.2746 48.2587 47.4646C48.4373 47.6609 48.6058 47.8662 48.7635 48.0797C49.047 48.4252 49.6106 48.9746 50.0877 48.5911C50.2994 48.3838 50.4542 48.1256 50.5372 47.8412C50.6306 47.5882 50.6933 47.3248 50.7239 47.0568C50.7754 46.4901 50.738 45.9188 50.6133 45.3636C50.5161 44.8155 50.3512 44.2816 50.1223 43.7741C50.0715 43.6488 49.9938 43.5361 49.8946 43.4442C49.7954 43.3522 49.6772 43.2832 49.5484 43.2419C49.4591 43.2284 49.3687 43.2249 49.2787 43.2316Z" fill="#016450"/>
<path d="M58.3025 42.6482C58.2345 42.0397 58.1341 41.4353 58.0017 40.8375C57.9706 40.6716 57.9533 40.4643 57.9083 40.2846C57.8634 40.1049 57.777 39.8388 57.6974 39.6211C57.3425 38.6263 56.8787 37.6737 56.3144 36.7807C56.2626 36.7012 56.2073 36.6183 56.1485 36.5423C56.5565 36.0815 56.961 35.6104 57.3621 35.1289C57.6075 34.8387 57.2099 34.4378 56.9299 34.7039C55.8212 35.7936 54.7148 36.8843 53.6107 37.9763C53.8308 38.2161 54.0363 38.4688 54.2261 38.7331C54.6998 38.2044 55.17 37.6688 55.6368 37.1366C55.8408 37.5063 56.0448 37.8795 56.2384 38.2562C56.2483 38.2817 56.2611 38.3061 56.2764 38.3288C56.3174 38.3905 56.3749 38.4396 56.4424 38.4704C56.5357 38.6605 56.6291 38.8505 56.7155 39.0441C56.9156 39.4811 57.082 39.9328 57.2134 40.3952C57.2376 40.4781 57.2583 40.5645 57.2756 40.6509L57.2964 40.7615C57.2964 40.7615 57.2964 40.8237 57.2964 40.8409C57.324 41.1381 57.4243 41.4353 57.4762 41.7325C57.8645 44.0561 57.5565 46.4426 56.591 48.5917C55.6372 50.7848 54.1082 52.6796 52.1655 54.0756C51.3849 54.6398 50.5155 55.0696 49.5932 55.3472C47.9447 55.8259 46.2156 55.9618 44.5125 55.7467C42.8094 55.5315 41.1685 54.9699 39.691 54.0963C39.532 53.9927 39.3729 53.8856 39.2208 53.775C39.5665 53.4778 39.8881 53.1772 40.22 52.8765C39.9291 52.7495 39.6531 52.5907 39.3971 52.4031C38.5639 53.2705 37.7272 54.1309 36.8974 55.0017C36.8664 55.0263 36.8414 55.0575 36.8242 55.0931C36.807 55.1287 36.7981 55.1678 36.7981 55.2073C36.7981 55.2468 36.807 55.2858 36.8242 55.3214C36.8414 55.357 36.8664 55.3883 36.8974 55.4129C36.9243 55.4437 36.9575 55.4684 36.9948 55.4853C37.0321 55.5022 37.0725 55.511 37.1135 55.511C37.1544 55.511 37.1949 55.5022 37.2321 55.4853C37.2694 55.4684 37.3026 55.4437 37.3296 55.4129L38.6883 54.2276C40.6933 55.656 43.0797 56.4526 45.541 56.5152C45.9179 56.5152 46.3017 56.5152 46.6889 56.5152C46.7007 58.2396 46.8603 59.9599 47.166 61.657C45.7646 61.7238 44.3666 61.8217 42.9721 61.9508H42.9514H42.9168H42.8926C42.8766 61.9579 42.8625 61.9685 42.8511 61.9819C42.8267 62.0115 42.8133 62.0488 42.8133 62.0872C42.8133 62.1257 42.8267 62.163 42.8511 62.1926C42.8624 62.2104 42.8776 62.2252 42.8956 62.236C42.9136 62.2468 42.9339 62.2533 42.9548 62.2548C46.0608 62.8539 49.264 62.7166 52.3073 61.854C52.3531 61.848 52.3947 61.8241 52.4229 61.7875C52.4511 61.7509 52.4636 61.7046 52.4577 61.6588C52.4517 61.6129 52.4278 61.5714 52.3911 61.5432C52.3545 61.515 52.3082 61.5025 52.2623 61.5084C50.7987 61.4946 49.3373 61.5177 47.8783 61.5776C47.8939 61.5379 47.9021 61.4958 47.9025 61.4532C47.9232 59.7634 47.9025 58.0702 47.7884 56.3839C49.1776 56.2447 50.523 55.82 51.7402 55.1365C53.8726 53.8512 55.6151 52.0105 56.7812 49.8115C57.9621 47.6178 58.4899 45.1321 58.3025 42.6482Z" fill="#016450"/>
<path d="M60.8635 11.9482L61.5005 12.4928L63.7158 9.90159C64.235 9.29428 65.0446 9.24356 65.5412 9.66816C66.0244 10.0812 66.0918 10.6855 65.6879 11.1578L63.2603 13.9974L63.9081 14.5512L66.2157 11.852C66.6726 11.3176 67.3443 11.2096 67.9273 11.7081C68.3807 12.0958 68.564 12.6683 68.0402 13.281L65.668 16.0557L66.305 16.6003L68.6772 13.8256C69.5103 12.8512 69.372 11.9527 68.6324 11.3205C68.0386 10.8128 67.371 10.7139 66.7908 10.9607L66.7476 10.9238C66.921 10.3058 66.7808 9.73744 66.2356 9.27131C65.6957 8.80979 65.0747 8.72738 64.5235 9.02236L64.4695 8.97621L65.0234 8.32841L64.4079 7.80227L60.8635 11.9482Z" fill="#016450"/>
<path d="M68.4642 19.4206C69.1194 20.1109 69.8468 20.1352 70.2316 20.0252L70.261 20.0562L69.7046 20.542L70.2815 21.1498L72.9885 18.7861C74.2939 17.6463 73.5343 16.5574 73.0551 16.0525C72.488 15.4549 71.6286 14.9618 70.5862 15.3067L70.9199 16.0705C71.3466 15.9429 71.9682 15.9794 72.5183 16.5589C73.0488 17.1179 73.0027 17.6621 72.4758 18.1222L72.4544 18.1409C72.1494 18.4072 71.8926 18.085 71.1118 17.4479C70.3161 16.8002 69.3873 16.1463 68.4458 16.9685C67.6433 17.6692 67.7504 18.6685 68.4642 19.4206ZM69.1193 19.0182C68.6597 18.534 68.5519 17.9875 68.9906 17.6044C69.4721 17.184 70.0228 17.4756 70.5368 17.8935C70.8134 18.123 71.5434 18.7479 71.7696 18.7388L71.1918 19.2433C70.6782 19.6918 69.8038 19.7394 69.1193 19.0182Z" fill="#016450"/>
<path d="M71.8449 23.6385C72.4845 24.4726 73.2494 24.3997 73.6123 24.3843L73.6728 24.4632L72.969 24.9182L73.4617 25.5606L79.5693 21.6123L79.0593 20.9473L76.8047 22.4048L76.7615 22.3484C76.8877 22.0476 77.2376 21.4337 76.5893 20.5883C75.7508 19.495 74.2531 19.3336 72.8097 20.2667C71.3544 21.2075 71.015 22.5565 71.8449 23.6385ZM72.5463 23.32C71.9066 22.4859 72.3535 21.5563 73.3317 20.924C74.2979 20.2994 75.3693 20.2306 76.0176 21.0759C76.64 21.8875 76.2766 22.7631 75.2507 23.4263C74.2129 24.0972 73.16 24.1203 72.5463 23.32Z" fill="#016450"/>
<path d="M75.1882 28.7913C75.7648 29.7374 76.689 30.1962 77.5698 30.0686L77.3547 29.2819C76.7281 29.3385 76.2134 29.0362 75.8715 28.4753C75.3595 27.6353 75.5835 26.7893 76.6235 26.2655L78.6843 29.6465L79.0066 29.4974C80.8502 28.6448 80.8535 27.3216 80.2621 26.3513C79.4933 25.0898 77.926 24.7419 76.4047 25.4455C74.8834 26.1491 74.3676 27.4449 75.1882 28.7913ZM77.281 25.9614C78.0809 25.6536 79.0798 25.8486 79.5788 26.6673C80.0519 27.4436 79.7362 28.2271 78.8982 28.6147L77.281 25.9614Z" fill="#016450"/>
<path d="M79.2692 37.0685C79.7407 38.4685 81.1648 39.2258 82.832 38.9471C84.5132 38.6661 85.3027 37.5388 84.8312 36.1387C84.3598 34.7387 82.9357 33.9814 81.2545 34.2624C79.5873 34.5411 78.7978 35.6685 79.2692 37.0685ZM80.0118 36.9444C79.6536 35.8809 80.4431 35.237 81.5219 35.0567C82.6007 34.8764 83.7306 35.1994 84.0887 36.2629C84.4468 37.3263 83.6433 37.9726 82.5645 38.1529C81.4858 38.3332 80.3699 38.0079 80.0118 36.9444Z" fill="#016450"/>
<path d="M83.4572 40.744C84.4082 40.7063 85.069 41.2617 85.2344 42.0471C85.3946 42.8081 84.9845 43.2904 84.1294 43.3243L80.723 43.4594L80.8957 44.2795L84.3589 44.1421C85.7498 44.0869 86.264 43.3342 86.0364 42.2535C85.8666 41.4473 85.3922 40.9616 84.786 40.7333L84.7714 40.6638L85.623 40.6301L85.4561 39.8378L80.0059 40.054L80.1786 40.8741L83.4572 40.744Z" fill="#016450"/>
<path d="M81.1366 51.5763C81.0902 52.6833 81.5995 53.6009 82.3967 54.0179L82.6535 53.2535C82.1052 52.9292 81.8473 52.3803 81.8748 51.7239C81.9159 50.7411 82.5676 50.1881 83.7149 50.3781L83.5492 54.3342L83.8975 54.4038C85.8893 54.8021 86.6223 53.7322 86.6699 52.5968C86.7317 51.1209 85.6305 49.9132 83.9869 49.5846C82.3433 49.256 81.2025 50.001 81.1366 51.5763ZM84.4253 50.5202C85.2552 50.7433 85.9718 51.4913 85.9317 52.4492C85.8936 53.3575 85.2007 53.8057 84.2953 53.6247L84.4253 50.5202Z" fill="#016450"/>
<path d="M80.6342 55.8774C80.4691 56.8147 80.8699 57.46 81.1785 57.736L81.1711 57.778L80.4676 57.553L80.3221 58.3784L83.7452 59.4727C85.3959 60.0004 85.8145 58.76 85.9353 58.0745C86.0783 57.2632 85.9704 56.2534 85.0972 55.5309L84.6886 56.2278C85.0354 56.5308 85.3655 57.0907 85.2268 57.8776C85.0931 58.6365 84.6382 58.8864 83.9718 58.6733L83.9448 58.6647C83.5592 58.5414 83.6645 58.1465 83.7153 57.1284C83.7657 56.0916 83.7443 54.9359 82.5537 54.5552C81.5389 54.2308 80.8142 54.8562 80.6342 55.8774ZM81.3291 56.2325C81.445 55.5751 81.8129 55.1903 82.3676 55.3676C82.9765 55.5623 83.0648 56.1964 83.0326 56.8658C83.0116 57.2285 82.9411 58.1961 83.0789 58.3878L82.3482 58.1543C81.6988 57.9466 81.1566 57.2118 81.3291 56.2325Z" fill="#016450"/>
<path d="M79.8024 59.7123L79.5452 60.5099L82.6995 61.9118C83.3744 62.2118 83.689 62.9853 83.4449 63.7423C83.3762 63.9553 83.2664 64.1576 83.236 64.2059L84.0149 64.5521C84.0508 64.4637 84.1248 64.257 84.163 64.1387C84.3635 63.5169 84.2003 62.8261 83.7681 62.4176L83.7855 62.3635L84.5384 62.6981L84.7869 61.9275L79.8024 59.7123Z" fill="#016450"/>
<path d="M81.8794 68.5213L82.3898 67.4742L83.5209 68.1287L83.8881 67.3753L82.7569 66.7209L83.1179 65.9803L82.5032 65.6246L82.1422 66.3652L79.1914 64.6579C78.3677 64.1812 77.6382 64.6431 77.327 65.2815C77.1901 65.5625 77.1522 65.7697 77.1393 65.8932L77.8656 66.117C77.8844 66.046 77.9096 65.9296 77.9905 65.7636C78.1523 65.4317 78.4062 65.1694 79.021 65.525L81.775 67.1185L81.2647 68.1656L81.8794 68.5213Z" fill="#016450"/>
<path d="M78.8589 69.538C79.6283 70.0981 79.7228 70.9176 79.2569 71.6015C78.8131 72.253 78.1433 72.3537 77.4428 71.8437L74.6867 69.8372L74.2148 70.5298L77.0169 72.5698C78.1509 73.3953 79.1018 73.1657 79.7296 72.2441C80.2135 71.5339 80.1994 70.9178 79.8869 70.3742L79.9269 70.3155L82.0858 71.8872L82.5576 71.1946L76.678 66.9141L76.2061 67.6067L78.8589 69.538Z" fill="#016450"/>
<path d="M30.9824 79.6128L30.3989 79.0113L27.952 81.385C27.3785 81.9413 26.5677 81.9165 26.1127 81.4475C25.6701 80.9912 25.6593 80.3833 26.1053 79.9506L28.7868 77.3494L28.1933 76.7377L25.6444 79.2103C25.1398 79.6999 24.461 79.7448 23.9269 79.1942C23.5116 78.766 23.3823 78.1789 23.9609 77.6177L26.5812 75.0758L25.9977 74.4743L23.3774 77.0161C22.4573 77.9087 22.5113 78.8161 23.1888 79.5145C23.7327 80.0753 24.3883 80.2359 24.9889 80.0441L25.0284 80.0849C24.7983 80.6841 24.885 81.2631 25.3844 81.7779C25.879 82.2877 26.4896 82.4276 27.0659 82.1852L27.1153 82.2362L26.5036 82.8296L27.0673 83.4108L30.9824 79.6128Z" fill="#016450"/>
<path d="M24.1102 71.4655C23.5222 70.7172 22.8002 70.6253 22.4068 70.699L22.3804 70.6655L22.9796 70.2336L22.4618 69.5746L19.5465 71.676C18.1407 72.6893 18.7956 73.8443 19.2257 74.3916C19.7347 75.0393 20.5444 75.6103 21.6144 75.364L21.3533 74.5724C20.9166 74.6598 20.301 74.5655 19.8073 73.9373C19.3312 73.3314 19.4277 72.7939 19.9952 72.3848L20.0182 72.3682C20.3466 72.1315 20.5723 72.4761 21.2904 73.1832C22.0224 73.9021 22.8862 74.6396 23.9003 73.9087C24.7645 73.2858 24.7509 72.2808 24.1102 71.4655ZM23.4205 71.8052C23.833 72.3301 23.8895 72.8843 23.417 73.2248C22.8985 73.5986 22.3773 73.257 21.9044 72.7931C21.6504 72.5388 20.9817 71.8486 20.7557 71.8366L21.3779 71.3881C21.931 70.9894 22.8061 71.0234 23.4205 71.8052Z" fill="#016450"/>
<path d="M21.1367 66.9504C20.5775 66.0604 19.8092 66.0618 19.4465 66.0434L19.3935 65.9592L20.1367 65.5717L19.7059 64.8861L13.2572 68.2487L13.7031 68.9583L16.0835 67.717L16.1213 67.7772C15.9677 68.0649 15.5621 68.6436 16.1289 69.5456C16.862 70.7123 18.3381 71.0124 19.8621 70.2178C21.3987 69.4165 21.8622 68.105 21.1367 66.9504ZM20.4087 67.2023C20.968 68.0923 20.4365 68.9762 19.4037 69.5147C18.3835 70.0467 17.3103 70.0154 16.7435 69.1134C16.1994 68.2474 16.6428 67.4095 17.726 66.8447C18.8217 66.2733 19.8722 66.3483 20.4087 67.2023Z" fill="#016450"/>
<path d="M18.2877 61.5088C17.8017 60.5131 16.9242 59.9703 16.0353 60.0152L16.1763 60.8186C16.8054 60.8206 17.2898 61.1694 17.578 61.7598C18.0095 62.6438 17.7078 63.4652 16.6234 63.8899L14.8864 60.3318L14.5517 60.4502C12.6367 61.1275 12.5101 62.4446 13.0086 63.4658C13.6567 64.7933 15.1848 65.2857 16.765 64.7268C18.3452 64.1679 18.9794 62.9257 18.2877 61.5088ZM15.9405 64.1315C15.1154 64.3634 14.139 64.0764 13.7184 63.2147C13.3196 62.3978 13.7069 61.6471 14.5774 61.3392L15.9405 64.1315Z" fill="#016450"/>
<path d="M14.9952 52.8877C14.6561 51.4498 13.3087 50.5632 11.6228 50.6855C9.92271 50.8088 9.03169 51.8577 9.37074 53.2956C9.70978 54.7334 11.0572 55.62 12.7573 55.4967C14.4432 55.3745 15.3342 54.3255 14.9952 52.8877ZM14.2443 52.9421C14.5018 54.0343 13.6558 54.6019 12.5649 54.681C11.4741 54.7601 10.3792 54.3333 10.1216 53.2411C9.86406 52.1489 10.7242 51.5803 11.8151 51.5012C12.906 51.4221 13.9868 51.8499 14.2443 52.9421Z" fill="#016450"/>
<path d="M11.1677 48.8382C10.2174 48.7872 9.61116 48.1726 9.51962 47.3753C9.43092 46.6027 9.88414 46.1607 10.7387 46.2065L14.1429 46.3891L14.0473 45.5565L10.5864 45.3709C9.19636 45.2963 8.61436 45.9979 8.74032 47.0951C8.83429 47.9136 9.2614 48.4414 9.84374 48.7251L9.85184 48.7956L9.00079 48.75L9.09314 49.5543L14.5399 49.8465L14.4443 49.0139L11.1677 48.8382Z" fill="#016450"/>
<path d="M14.4867 38.2691C14.6359 37.1712 14.2142 36.2102 13.4593 35.7208L13.1325 36.458C13.6482 36.8319 13.8539 37.4024 13.7654 38.0534C13.6329 39.0281 12.9326 39.5181 11.808 39.222L12.3413 35.2986L12.001 35.1969C10.0549 34.6149 9.22549 35.6118 9.07243 36.7379C8.87346 38.2017 9.8574 39.5066 11.4633 39.9868C13.0691 40.467 14.2743 39.8314 14.4867 38.2691ZM11.1139 39.0145C10.3084 38.715 9.66457 37.9036 9.79371 36.9536C9.91615 36.0527 10.6478 35.671 11.5324 35.9356L11.1139 39.0145Z" fill="#016450"/>
<path d="M15.3875 34.0334C15.6392 33.1156 15.3002 32.4358 15.0186 32.1322L15.0298 32.0911L15.7094 32.3806L15.931 31.5724L12.6247 30.1641C11.0304 29.485 10.498 30.681 10.314 31.3523C10.0961 32.1468 10.1095 33.1622 10.9116 33.9628L11.3833 33.307C11.0662 32.9731 10.7897 32.3849 11.001 31.6143C11.2048 30.8712 11.681 30.6647 12.3247 30.9389L12.3508 30.95C12.7233 31.1087 12.5816 31.492 12.4363 32.501C12.2895 33.5285 12.2032 34.6813 13.3533 35.1711C14.3334 35.5886 15.1132 35.0334 15.3875 34.0334ZM14.7287 33.6151C14.5521 34.259 14.1499 34.6078 13.6141 34.3796C13.026 34.1291 12.9971 33.4895 13.0915 32.826C13.1462 32.4668 13.3064 31.5101 13.1872 31.3063L13.8929 31.6069C14.5202 31.874 14.9916 32.6562 14.7287 33.6151Z" fill="#016450"/>
<path d="M16.5726 30.2925L16.9029 29.5222L13.8929 27.8328C13.2488 27.4713 13.0076 26.6719 13.3212 25.9408C13.4093 25.7352 13.5375 25.5439 13.5723 25.4987L12.829 25.0815C12.7851 25.1662 12.6921 25.365 12.6431 25.4793C12.3856 26.0798 12.4837 26.7827 12.876 27.2297L12.8536 27.2819L12.1351 26.8787L11.816 27.6228L16.5726 30.2925Z" fill="#016450"/>
<path d="M15.3247 21.3282L14.7191 22.3231L13.6539 21.5662L13.2181 22.2821L14.2834 23.039L13.8551 23.7428L14.434 24.1542L14.8624 23.4504L17.6413 25.425C18.4171 25.9763 19.1865 25.5844 19.5557 24.9777C19.7182 24.7107 19.7753 24.5079 19.7996 24.3862L19.0973 24.0957C19.072 24.1646 19.036 24.2781 18.94 24.4359C18.748 24.7514 18.4708 24.9889 17.8918 24.5775L15.2981 22.7345L15.9037 21.7395L15.3247 21.3282Z" fill="#016450"/>
<path d="M18.4271 20.5976C17.7132 19.9682 17.6954 19.1434 18.2229 18.506C18.7255 17.8986 19.4018 17.8607 20.0518 18.4337L22.6091 20.6881L23.1433 20.0424L20.5434 17.7504C19.4912 16.8229 18.523 16.963 17.8121 17.8221C17.2643 18.4842 17.2209 19.0989 17.4814 19.6693L17.4362 19.724L15.433 17.9581L14.8987 18.6038L20.3542 23.4131L20.8885 22.7674L18.4271 20.5976Z" fill="#016450"/>
</svg>
